<svg width="124" height="119" viewBox="0 0 124 119" fill="none" xmlns="http://www.w3.org/2000/svg">
<rect x="16" width="34" height="34" rx="17" fill="#D8F3FF"/>
<rect x="45" y="40" width="79" height="79" rx="39.5" fill="#D8F3FF"/>
<path fill-rule="evenodd" clip-rule="evenodd" d="M25.934 48.5785C24.7724 48.5997 23.6418 48.9299 22.7842 49.7875C22.4429 50.1288 22.1921 50.5171 22.0037 50.9304C21.9977 50.9384 21.9917 50.9466 21.9858 50.9547L0.15324 100.247C0.0071939 100.576 -0.0357685 100.942 0.0299831 101.296C0.0957347 101.65 0.26715 101.976 0.52165 102.231C0.77615 102.486 1.10184 102.658 1.45588 102.724C1.80991 102.79 2.17573 102.748 2.50519 102.602L51.6616 80.8256C51.6804 80.8155 51.6989 80.805 51.7173 80.7942C52.1695 80.6022 52.595 80.3381 52.9647 79.9685C54.1081 78.825 54.3152 77.1961 54.1005 75.6584C53.8859 74.1207 53.2738 72.4854 52.3619 70.7177C50.538 67.1822 47.4777 63.1297 43.5501 59.2021C39.6225 55.2745 35.5734 52.2176 32.038 50.3938C30.2702 49.4818 28.6349 48.8662 27.0972 48.6516C26.7128 48.598 26.3212 48.5714 25.934 48.5785ZM26.0246 52.1394C26.1834 52.1396 26.3734 52.1526 26.603 52.1847C27.5217 52.3129 28.8669 52.7731 30.4009 53.5645C33.4689 55.1472 37.3181 58.0148 41.028 61.7247C44.7379 65.4346 47.6089 69.2872 49.1917 72.3553C49.9831 73.8893 50.4398 75.2311 50.568 76.1497C50.6962 77.0683 50.5187 77.3697 50.4426 77.4458C50.3666 77.5219 50.065 77.7029 49.1464 77.5748C48.2278 77.4466 46.8826 76.9898 45.3485 76.1985C42.2805 74.6157 38.4278 71.7446 34.7179 68.0348C31.0081 64.3249 28.1405 60.4757 26.5577 57.4077C25.7664 55.8736 25.3096 54.5284 25.1814 53.6098C25.0883 52.9422 25.1567 52.6058 25.2302 52.4391L25.248 52.4042V52.4007C25.2692 52.3609 25.2911 52.3261 25.3072 52.3101C25.3643 52.253 25.5481 52.1389 26.0246 52.1394ZM22.826 57.8711C23.0003 58.2558 23.1852 58.6438 23.3905 59.0418C25.2144 62.5772 28.2677 66.6298 32.1953 70.5574C36.1229 74.485 40.1789 77.5418 43.7144 79.3657C44.11 79.5698 44.4957 79.7533 44.8782 79.9267L31.1256 86.0172C28.2074 84.3033 24.8604 81.6622 21.7668 78.5713C19.7551 76.5573 17.9222 74.4246 16.408 72.3588L22.826 57.8711ZM14.7634 76.0765C16.1144 77.7748 17.6237 79.4677 19.2442 81.0904C21.8281 83.6725 24.5577 85.9613 27.2023 87.7559L5.2861 97.4666L14.7634 76.0765Z" fill="#127AA5"/>
<path fill-rule="evenodd" clip-rule="evenodd" d="M88.5671 44.5018C78.8388 43.6587 70.7401 47.1213 64.8285 51.3345C56.9464 56.9521 52.6579 63.9442 52.6579 63.9442C52.5348 64.1438 52.4523 64.3658 52.4151 64.5974C52.378 64.829 52.3868 65.0656 52.4412 65.2938C52.4955 65.5219 52.5944 65.7371 52.732 65.927C52.8696 66.117 53.0434 66.2779 53.2433 66.4006C53.6462 66.648 54.1309 66.7254 54.5909 66.6156C55.0508 66.5059 55.4484 66.218 55.6962 65.8152C55.6962 65.8152 59.6556 59.4022 66.8982 54.2404C74.1409 49.0786 84.3724 45.2109 97.5426 50.2439C97.9843 50.4129 98.475 50.3995 98.9069 50.2067C99.3388 50.014 99.6765 49.6577 99.8457 49.216C100.015 48.7743 100.001 48.2836 99.8085 47.8517C99.6158 47.4198 99.2595 47.0822 98.8179 46.9129C95.2335 45.5432 91.8098 44.7828 88.5671 44.5018Z" fill="#127AA5"/>
<path fill-rule="evenodd" clip-rule="evenodd" d="M72.08 12.2338C71.6092 12.1901 71.1404 12.3352 70.7765 12.637C70.4126 12.9388 70.1834 13.3728 70.1392 13.8435C70.1392 13.8435 69.422 21.3452 65.209 29.1779C60.9959 37.0106 53.5295 45.0066 39.4914 46.3171C39.0207 46.3613 38.5867 46.5905 38.2849 46.9544C37.9831 47.3183 37.838 47.7871 37.8816 48.2579C37.9258 48.7286 38.155 49.1625 38.5189 49.4644C38.8828 49.7662 39.3516 49.9113 39.8224 49.8676C55.1045 48.4409 63.7668 39.392 68.3518 30.8678C72.9368 22.3435 73.6897 14.1745 73.6897 14.1745C73.7334 13.7037 73.5883 13.2349 73.2865 12.871C72.9847 12.5071 72.5507 12.2779 72.08 12.2338Z" fill="#127AA5"/>
<path fill-rule="evenodd" clip-rule="evenodd" d="M32.5228 25.7005C29.5881 25.7005 27.1709 28.1178 27.1709 31.0524C27.1709 33.9871 29.5881 36.4043 32.5228 36.4043C35.4574 36.4043 37.8747 33.9871 37.8747 31.0524C37.8747 28.1178 35.4574 25.7005 32.5228 25.7005ZM32.5228 29.2685C33.5292 29.2685 34.3067 30.046 34.3067 31.0524C34.3067 32.0588 33.5292 32.8364 32.5228 32.8364C31.5164 32.8364 30.7388 32.0588 30.7388 31.0524C30.7388 30.046 31.5164 29.2685 32.5228 29.2685Z" fill="#127AA5"/>
<path fill-rule="evenodd" clip-rule="evenodd" d="M91.7762 11.6937C88.234 11.6937 85.3232 14.6044 85.3232 18.1466C85.3232 21.6887 88.234 24.5995 91.7762 24.5995C95.3183 24.5995 98.2291 21.6887 98.2291 18.1466C98.2291 14.6044 95.3183 11.6937 91.7762 11.6937ZM91.7762 15.2616C93.3901 15.2616 94.6612 16.5327 94.6612 18.1466C94.6612 19.7605 93.3901 21.0316 91.7762 21.0316C90.1623 21.0316 88.8912 19.7605 88.8912 18.1466C88.8912 16.5327 90.1623 15.2616 91.7762 15.2616Z" fill="#127AA5"/>
<path fill-rule="evenodd" clip-rule="evenodd" d="M94.6126 79.5259C91.678 79.5259 89.2607 81.9432 89.2607 84.8778C89.2607 87.8124 91.678 90.2297 94.6126 90.2297C97.5473 90.2297 99.9645 87.8124 99.9645 84.8778C99.9645 81.9432 97.5473 79.5259 94.6126 79.5259ZM94.6126 83.0939C95.619 83.0939 96.3966 83.8714 96.3966 84.8778C96.3966 85.8842 95.619 86.6618 94.6126 86.6618C93.6062 86.6618 92.8287 85.8842 92.8287 84.8778C92.8287 83.8714 93.6062 83.0939 94.6126 83.0939Z" fill="#127AA5"/>
<path fill-rule="evenodd" clip-rule="evenodd" d="M55.7869 11.8435C55.3138 11.8435 54.86 12.0315 54.5255 12.366C54.1909 12.7006 54.0029 13.1543 54.0029 13.6275V16.1013H51.5291C51.0559 16.1013 50.6022 16.2893 50.2677 16.6238C49.9331 16.9584 49.7451 17.4121 49.7451 17.8853C49.7451 18.3584 49.9331 18.8122 50.2677 19.1467C50.6022 19.4813 51.0559 19.6692 51.5291 19.6692H54.0029V22.1431C54.0029 22.6162 54.1909 23.07 54.5255 23.4045C54.86 23.7391 55.3138 23.927 55.7869 23.927C56.26 23.927 56.7138 23.7391 57.0484 23.4045C57.3829 23.07 57.5708 22.6162 57.5708 22.1431V19.6692H60.0447C60.5178 19.6692 60.9716 19.4813 61.3061 19.1467C61.6407 18.8122 61.8287 18.3584 61.8287 17.8853C61.8287 17.4121 61.6407 16.9584 61.3061 16.6238C60.9716 16.2893 60.5178 16.1013 60.0447 16.1013H57.5708V13.6275C57.5708 13.1543 57.3829 12.7006 57.0484 12.366C56.7138 12.0315 56.26 11.8435 55.7869 11.8435Z" fill="#127AA5"/>
<path fill-rule="evenodd" clip-rule="evenodd" d="M77.519 29.9549C77.0459 29.9549 76.5922 30.1429 76.2577 30.4775C75.9232 30.8121 75.7354 31.2658 75.7354 31.7388C75.7354 32.2119 75.9232 32.6656 76.2577 33.0001L78.0068 34.7493L76.2577 36.4984C75.9232 36.8329 75.7354 37.2866 75.7354 37.7597C75.7354 38.2328 75.9232 38.6865 76.2577 39.021C76.5923 39.3555 77.046 39.5434 77.519 39.5434C77.9921 39.5434 78.4458 39.3555 78.7804 39.021L80.5295 37.2719L82.2786 39.021C82.6131 39.3555 83.0668 39.5434 83.5399 39.5434C84.013 39.5434 84.4667 39.3555 84.8012 39.021C85.1357 38.6865 85.3236 38.2328 85.3236 37.7597C85.3236 37.2866 85.1357 36.8329 84.8012 36.4984L83.0521 34.7493L84.8012 33.0001C85.1357 32.6656 85.3236 32.2119 85.3236 31.7388C85.3236 31.2658 85.1357 30.8121 84.8012 30.4775C84.4667 30.1429 84.013 29.9549 83.5399 29.9549C83.0668 29.9549 82.6131 30.1429 82.2786 30.4775L80.5295 32.2266L78.7804 30.4775C78.4459 30.1429 77.9921 29.9549 77.519 29.9549Z" fill="#127AA5"/>
<path fill-rule="evenodd" clip-rule="evenodd" d="M79.282 62.4076C78.8089 62.4076 78.3551 62.5955 78.0206 62.9301C77.686 63.2647 77.498 63.7184 77.498 64.1916V66.6654H75.0242C74.5511 66.6654 74.0973 66.8534 73.7628 67.1879C73.4282 67.5225 73.2402 67.9762 73.2402 68.4494C73.2402 68.9225 73.4282 69.3763 73.7628 69.7108C74.0973 70.0454 74.5511 70.2333 75.0242 70.2333H77.498V72.7072C77.498 73.1803 77.686 73.6341 78.0206 73.9686C78.3551 74.3032 78.8089 74.4911 79.282 74.4911C79.7551 74.4911 80.2089 74.3032 80.5435 73.9686C80.878 73.6341 81.066 73.1803 81.066 72.7072V70.2333H83.5398C84.0129 70.2333 84.4667 70.0454 84.8013 69.7108C85.1358 69.3763 85.3238 68.9225 85.3238 68.4494C85.3238 67.9762 85.1358 67.5225 84.8013 67.1879C84.4667 66.8534 84.0129 66.6654 83.5398 66.6654H81.066V64.1916C81.066 63.7184 80.878 63.2647 80.5435 62.9301C80.2089 62.5955 79.7551 62.4076 79.282 62.4076Z" fill="#127AA5"/>
<path fill-rule="evenodd" clip-rule="evenodd" d="M62.6896 78.512C62.4571 78.5425 62.2329 78.6185 62.0298 78.7358C61.8267 78.853 61.6487 79.0091 61.5059 79.1952C61.3632 79.3813 61.2586 79.5937 61.1981 79.8202C61.1375 80.0468 61.1222 80.283 61.153 80.5155C61.2154 80.9845 61.4616 81.4094 61.8373 81.6969C62.213 81.9844 62.6875 82.1109 63.1565 82.0486C63.6546 81.9827 64.1637 81.9827 64.6617 82.0486C65.2372 82.1247 65.7738 82.2897 66.2227 82.5329C66.6671 82.7737 67.0428 83.1038 67.2854 83.4667C67.5235 83.8228 67.65 84.2488 67.6443 84.6095C67.6389 84.9595 67.4935 85.3175 67.3028 85.5259C67.1717 85.6692 66.9569 85.8239 66.6826 85.9406C66.4037 86.0592 66.0554 86.1461 65.6513 86.2088C64.8407 86.3347 63.7942 86.3271 62.5711 86.5712C60.5886 86.9669 58.7776 88.0072 57.4353 89.5189C56.093 91.0307 55.2766 92.9529 55.1182 94.9684C54.9598 96.9838 55.4676 99.0077 56.5573 100.71C57.647 102.413 59.2741 103.724 61.1705 104.425C63.0669 105.125 65.1553 105.188 67.0903 104.602C69.0253 104.017 70.7262 102.808 71.916 101.174C73.1059 99.5395 73.7337 97.5471 73.6965 95.5258C73.6592 93.5046 72.9597 91.537 71.7105 89.9475C71.5656 89.7633 71.386 89.6095 71.1817 89.4947C70.9774 89.38 70.7526 89.3066 70.5199 89.2788C70.2873 89.2509 70.0515 89.2692 69.8259 89.3325C69.6003 89.3959 69.3894 89.503 69.2052 89.6478C69.0211 89.7927 68.8672 89.9723 68.7525 90.1766C68.6377 90.3809 68.5644 90.6057 68.5365 90.8384C68.5087 91.071 68.527 91.3069 68.5903 91.5324C68.6537 91.758 68.7608 91.9689 68.9056 92.1531C69.6629 93.1166 70.106 94.3666 70.1286 95.5921C70.1511 96.8174 69.7523 98.0821 69.031 99.0729C68.3097 100.064 67.2285 100.833 66.0554 101.188C64.8824 101.543 63.557 101.501 62.4074 101.076C61.2578 100.652 60.2213 99.8194 59.5607 98.7871C58.9001 97.7549 58.5797 96.4689 58.6757 95.2471C58.7717 94.0253 59.2906 92.8047 60.1043 91.8882C60.918 90.9718 62.0696 90.3128 63.2715 90.0729C64.0262 89.9223 65.0161 89.9186 66.1983 89.7349C66.7906 89.643 67.4308 89.4988 68.0798 89.2228C68.7334 88.9448 69.3874 88.5378 69.9369 87.9371C70.7789 87.0167 71.1929 85.845 71.2122 84.6653C71.2308 83.4964 70.8627 82.3999 70.2505 81.4841C69.643 80.5752 68.8237 79.8815 67.923 79.3936C67.0268 78.908 66.0697 78.6365 65.1286 78.512C64.3187 78.4049 63.4995 78.4049 62.6896 78.512Z" fill="#127AA5"/>
<path fill-rule="evenodd" clip-rule="evenodd" d="M16.1254 5.19895C15.1018 4.92938 14.0292 4.93478 13.0069 5.20941C11.9846 5.48404 11.0538 6.01715 10.3031 6.7634C10.1365 6.92865 10.0041 7.12514 9.91357 7.34162C9.82302 7.5581 9.77606 7.79032 9.7754 8.02498C9.77473 8.25964 9.82038 8.49212 9.90971 8.70911C9.99903 8.9261 10.1303 9.12333 10.296 9.28952C10.6296 9.62492 11.0827 9.81407 11.5558 9.81538C12.0289 9.81669 12.4831 9.63004 12.8186 9.29649C13.1211 8.99577 13.5216 8.76605 13.9336 8.65538C14.3455 8.54471 14.8068 8.54326 15.2193 8.6519C15.6318 8.76054 16.0302 8.9868 16.3343 9.28605C16.6383 9.58529 16.8741 9.98334 16.9893 10.3941C17.1937 11.1229 17.0571 12.2241 16.9822 13.6484C16.9447 14.3643 16.9397 15.1729 17.1285 16.0386C17.3198 16.9155 17.7085 17.8337 18.4455 18.5961C19.064 19.2359 19.8492 19.676 20.7173 19.8713C21.5854 20.0667 22.4836 20.0068 23.3166 19.6936C24.1495 19.3805 24.8653 18.8341 25.3897 18.1153C25.9142 17.3964 26.2134 16.5511 26.2573 15.6623C26.269 15.4282 26.2345 15.1942 26.1558 14.9735C26.077 14.7527 25.9555 14.5497 25.7983 14.3759C25.641 14.2022 25.451 14.0611 25.2392 13.9608C25.0275 13.8605 24.798 13.8028 24.5639 13.7912C24.3299 13.7795 24.0958 13.814 23.8751 13.8928C23.6544 13.9715 23.4513 14.093 23.2775 14.2503C23.1038 14.4075 22.9627 14.5975 22.8624 14.8093C22.7621 15.0211 22.7045 15.2505 22.6929 15.4846C22.684 15.6645 22.6108 15.8687 22.5047 16.0142C22.3986 16.1598 22.2273 16.2888 22.0587 16.3522C21.8902 16.4156 21.677 16.4301 21.5012 16.3905C21.3255 16.351 21.1387 16.2448 21.0134 16.1153C20.8581 15.9546 20.6986 15.6565 20.6162 15.279C20.5315 14.8904 20.5135 14.4027 20.5431 13.8365C20.6028 12.6967 20.9134 11.1725 20.4246 9.42891C20.1388 8.40968 19.5902 7.48504 18.8358 6.74252C18.0814 6 17.149 5.46853 16.1254 5.19895Z" fill="#127AA5"/>
</svg>
