<svg width="110" height="100" viewBox="0 0 110 100" fill="none" xmlns="http://www.w3.org/2000/svg">
<rect x="34" y="5" width="76" height="85" rx="24" fill="#D8F3FF"/>
<path d="M95.9236 92.6391C95.9236 94.0588 94.7726 95.2099 93.3528 95.2099H2.57082C1.15108 95.2099 0 94.0588 0 92.6391C0 91.2194 1.15108 90.0683 2.57082 90.0683H93.3528C94.7726 90.0683 95.9236 91.2194 95.9236 92.6391ZM45.3524 50.4372C45.848 50.8996 46.4775 51.1284 47.1061 51.1284C47.7938 51.1284 48.4798 50.854 48.9863 50.3116C49.9549 49.2736 49.8986 47.6469 48.8606 46.678C44.4533 42.5647 45.3961 34.2047 49.1839 29.478C54.3233 23.0654 55.4545 11.633 48.8603 5.48099C47.8227 4.51211 46.1953 4.56867 45.2268 5.60728C44.2582 6.64525 44.3148 8.27225 45.3531 9.24081C49.3121 12.9341 49.2241 21.2064 45.1718 26.2628C42.5085 29.5866 40.9165 34.0408 40.804 38.4839C40.6803 43.3395 42.2961 47.5849 45.3524 50.4372ZM100 45.0967V50.0284C100 57.0985 94.2488 62.8501 87.179 62.8501H81.4403C77.5445 73.6816 67.1671 81.4493 55.0107 81.4493H40.9139C25.4331 81.4493 12.8387 68.8552 12.8387 53.3747V27.8706C12.8387 26.4508 13.9897 25.2997 15.4095 25.2997H31.8997C35.2469 20.2111 35.0971 12.7079 31.381 9.24049C30.343 8.27193 30.2868 6.64525 31.2554 5.60696C32.2239 4.56867 33.8509 4.51243 34.8889 5.48131C41.4814 11.633 40.3506 23.0651 35.2125 29.4776C31.4234 34.2051 30.4803 42.565 34.8889 46.6777C35.9269 47.6466 35.9834 49.2729 35.0149 50.3116C34.0463 51.3495 32.4193 51.4058 31.3813 50.4375C28.324 47.5849 26.7082 43.3398 26.8313 38.4839C26.9017 35.7154 27.5463 32.9425 28.6669 30.4414H17.9803V53.3747C17.9803 66.0202 28.2684 76.3077 40.9139 76.3077H55.0107C67.6562 76.3077 77.9443 66.0199 77.9443 53.3747V30.4414H58.6146C57.1949 30.4414 56.0438 29.2903 56.0438 27.8706C56.0438 26.4508 57.1949 25.2997 58.6146 25.2997H80.5151C81.9349 25.2997 83.0859 26.4508 83.0859 27.8706V32.275H87.1793C94.2484 32.275 100 38.0266 100 45.0967ZM94.8584 45.0967C94.8584 40.8619 91.4135 37.4167 87.179 37.4167H83.0856V57.7088H87.179C91.4135 57.7088 94.8584 54.2632 94.8584 50.0288V45.0967Z" fill="#127AA5"/>
</svg>
